PathFileType	4	(X/Y/Z)	F:\MotionCapture\20160217\3\Generated_files\EMG_Fprce_test07-Dynamic.trc
DataRate	CameraRate	NumFrames	NumMarkers	Units	OrigDataRate	OrigDataStartFrame	OrigNumFrames
120.00	120.00	       7	39	mm	120.00	376	       751
Frame#	Time	Top.Head			Front.Head			Rear.Head			R.Shoulder			R.Offset			R.Elbow			R.Wrist			L.Shoulder			L.Elbow			L.Wrist			R.ASIS			L.ASIS			V.Sacral			R.Thigh			R.Knee			R.Shank			R.Ankle			R.Heel			R.Toe			L.Thigh			L.Knee			L.Shank			L.Ankle			L.Heel			L.Toe			R1			R2			R3			R4			R5			R6			R7			L1			L2			L3			L4			L5			L6			L7			V_Mid_ASIS			V_Pelvis_Origin			V_R.Hip_JC			V_L.Hip_JC			V_R.Knee_JC			V_L.Knee_JC			V_R.Ankle_JC			V_L.Ankle_JC			V_Mid_Hip			V_Mid_Shoulder			V_R.Hand			V_L.Hand			V_R.Toe_Offset_Static			V_L.Toe_Offset_Static			V_R.Toe_Offset			V_L.Toe_Offset			
		X1	Y1	Z1	X2	Y2	Z2	X3	Y3	Z3	X4	Y4	Z4	X5	Y5	Z5	X6	Y6	Z6	X7	Y7	Z7	X8	Y8	Z8	X9	Y9	Z9	X10	Y10	Z10	X11	Y11	Z11	X12	Y12	Z12	X13	Y13	Z13	X14	Y14	Z14	X15	Y15	Z15	X16	Y16	Z16	X17	Y17	Z17	X18	Y18	Z18	X19	Y19	Z19	X20	Y20	Z20	X21	Y21	Z21	X22	Y22	Z22	X23	Y23	Z23	X24	Y24	Z24	X25	Y25	Z25	X26	Y26	Z26	X27	Y27	Z27	X28	Y28	Z28	X29	Y29	Z29	X30	Y30	Z30	X31	Y31	Z31	X32	Y32	Z32	X33	Y33	Z33	X34	Y34	Z34	X35	Y35	Z35	X36	Y36	Z36	X37	Y37	Z37	X38	Y38	Z38	X39	Y39	Z39	

376	3.125	-70.11648	191.51498	1675.60498	-184.50246	184.93065	1596.50769	35.67098	186.83736	1602.68896	-30.21867	376.32233	1369.17712	104.60902	115.85803	1220.26013	-78.00749	518.28870	1065.88647	-325.74277	484.48459	1003.48315	-36.27319	-30.00349	1373.34387	106.57300	-138.06207	1099.19470	150.33794	-186.27652	848.08356	-79.06901	331.56094	885.70825	-131.50537	47.61764	897.88928	111.08205	132.45410	892.13165	-5.65746	301.53571	507.18869	117.21857	324.48206	433.41315	252.20363	240.94473	239.55238	407.20840	291.99744	142.74355	465.17331	221.39558	164.61467	314.89151	269.03610	36.62456	-265.76663	97.98681	640.46539	-260.62985	37.45187	466.04623	-302.81241	120.28520	334.10880	-317.40323	52.31809	60.88181	-251.04845	106.36552	37.86254	-452.90283	70.48109	57.27871	271.53937	250.83730	33.28843	303.21127	231.69371	42.45843	361.26282	204.38933	103.92286	423.05994	195.82977	137.89452	447.68829	266.76950	141.76720	401.93030	297.26675	75.83681	356.45227	306.69867	36.22250	-492.52213	96.25939	61.52734	-464.75336	107.30312	60.80025	-369.43283	146.28481	56.22234	-288.80704	141.60025	41.61047	-281.67654	69.17527	36.71155	-357.40918	44.85072	36.02352	-419.33893	41.31830	45.77835																																																	314.23596	214.58278	53.74820	
377	3.133	-84.12767	190.61855	1676.78320	-198.17151	184.17149	1597.63623	21.75599	186.14276	1603.84375	-44.25082	375.47726	1370.07227	89.62460	114.40178	1221.51953	-89.13503	516.43011	1064.99194	-336.36053	484.02805	999.84808	-51.31285	-31.97574	1373.86975	88.91290	-139.21628	1097.67322	131.12592	-185.37833	846.00049	-95.09660	329.23682	886.04150	-145.97078	45.68736	899.87006	96.13171	131.48587	892.88690	-24.97429	303.98923	506.85403	98.03803	327.68997	432.78003	237.15634	244.60320	242.07019	392.18353	292.09955	146.65338	450.47223	223.30173	176.16959	313.61823	269.42877	35.90891	-280.94547	97.45501	644.23364	-277.32602	38.05022	468.49661	-312.30249	121.02190	333.54642	-321.12225	52.54441	59.93434	-252.45613	105.12709	39.14672	-456.37747	71.88210	50.55731	271.52277	250.94858	33.31277	300.51855	230.72649	42.83638	351.72360	206.97479	108.68369	409.97861	197.97420	147.05798	436.93835	268.97632	151.43611	395.42294	298.80719	81.39799	353.89999	306.56665	37.78267	-495.71384	98.64285	53.55741	-466.18976	109.25123	54.00411	-370.45398	146.61316	54.61930	-289.77756	141.46512	41.84421	-282.73993	67.28216	38.32726	-358.98032	45.06054	32.82523	-421.24088	40.74000	41.95336																																																	847.43445	122.43810	-25.62067	
378	3.142	-98.08100	190.12834	1678.06482	-212.53775	183.64461	1598.88147	8.28314	184.85500	1604.86194	-58.14511	374.61612	1371.17285	75.18460	112.50069	1223.31628	-99.17623	512.96442	1065.74634	-346.06400	484.18927	995.51825	-65.97327	-33.39919	1374.88525	71.11459	-139.97076	1096.28589	110.81728	-184.56525	843.98865	-110.70980	326.85049	886.44623	-160.56032	43.90558	902.34882	81.57170	131.29933	893.73901	-45.63863	306.45789	507.28571	77.87460	331.18661	432.22623	220.90155	248.60144	244.09798	377.98996	294.58176	154.39107	434.00766	225.13466	187.83264	311.14859	269.11749	35.42480	-295.29492	97.32858	647.87372	-293.21249	38.64835	469.45093	-322.50949	121.03413	332.93634	-321.63968	51.57591	60.50646	-254.46266	105.03770	40.26940	-458.20032	72.25414	46.49655	271.80237	250.68719	33.20354	298.67310	230.82239	43.20538	340.42563	209.76743	113.55797	395.71640	200.64590	156.85017	423.32767	270.91107	161.69418	387.90842	300.52017	87.99083	351.31598	305.98315	40.32665	-497.26843	98.17148	47.29385	-469.04993	109.74429	48.57211	-372.13419	146.96506	52.22900	-291.95160	141.35474	41.88133	-283.67303	66.60760	38.48877	-360.27655	45.35645	33.20835	-423.04645	39.79819	40.32523																																																	828.24792	125.92287	-15.34817	
379	3.150	-111.71074	189.26183	1679.42920	-226.70059	182.19072	1600.81604	-5.65548	183.87126	1606.80090	-72.54173	373.26062	1372.59314	59.85463	111.01483	1225.09094	-109.51525	510.75803	1066.10278	-355.29031	483.67593	991.08527	-80.75161	-34.94668	1376.16736	52.79134	-140.86496	1095.26807	89.34875	-184.25865	842.17511	-126.29960	324.84961	887.53741	-175.33749	41.81569	905.33655	66.36194	130.50404	894.79486	-66.84027	309.09039	507.35773	56.41753	334.11960	431.50266	203.71593	251.83199	246.52905	368.98911	297.71158	163.83150	417.45709	226.82883	200.18768	308.38354	269.36996	37.81920	-308.39310	95.94707	649.82086	-307.04071	38.37469	468.96054	-332.04654	120.65095	332.06604	-320.83630	51.21294	61.40892	-255.74380	105.46696	40.91308	-460.31268	70.40515	43.86580	270.17386	250.23154	32.67896	294.46906	231.27628	44.78884	329.19107	211.89212	120.24798	381.36057	202.61334	167.79727	407.67328	272.92484	174.05112	379.55371	301.67703	97.19493	345.92386	306.24408	44.68763	-500.20679	97.85623	43.08549	-470.83682	108.64006	45.43671	-374.53113	147.35318	49.31931	-293.45251	141.75034	41.75042	-285.64920	68.51278	38.97372	-360.91901	45.23336	32.76138	-423.76279	36.70237	39.85082																																																	-1360.94421	537.90118	500.51010	
380	3.158	-125.16926	188.69785	1680.97644	-240.23944	181.71054	1602.61951	-19.69441	182.96135	1607.94543	-87.25838	371.94983	1374.54211	44.79918	109.18035	1226.62878	-118.96251	508.10657	1066.68054	-363.23981	483.51187	985.81769	-95.34133	-36.17936	1377.75012	34.18926	-141.40321	1094.28479	66.79385	-183.61742	840.54810	-141.03003	322.55173	888.12195	-189.59941	39.73632	908.22247	52.65178	129.92464	896.51379	-89.27840	312.14767	507.91354	34.25563	336.46588	430.56934	186.39261	255.30547	248.67526	354.24899	299.90137	173.73109	400.65387	229.85373	214.01883	303.87854	270.42725	41.62650	-321.51776	93.50113	651.06317	-318.70645	37.75050	467.96509	-340.97525	119.67741	331.10818	-325.79901	52.96766	59.16341	-256.11734	105.78372	41.27379	-461.66962	69.69321	42.51068	266.94159	250.81909	32.43457	289.44766	232.76064	47.36189	317.61249	213.42906	128.34999	366.69846	204.18828	179.23209	392.77878	274.74271	186.27235	370.38992	303.37695	108.01216	339.72037	307.63617	50.16734	-504.12967	98.54546	41.34379	-472.52454	107.91721	45.22451	-376.54340	147.63158	46.97675	-294.01871	141.82156	41.62351	-286.68298	68.82013	39.31191	-361.11978	45.30602	32.69078	-424.20987	36.35617	38.98452	
381	3.167	-139.04234	188.18100	1682.97498	-253.86165	181.10703	1604.70349	-33.69439	182.16737	1609.58691	-101.36850	370.60602	1376.51514	30.28627	108.06577	1228.79321	-128.82220	505.80722	1067.46997	-371.41193	483.42511	980.45190	-109.66606	-37.23442	1379.64783	15.58622	-141.90181	1093.69397	43.18535	-182.60286	839.09955	-157.52232	319.66782	890.38995	-203.13019	37.56148	911.02991	38.37746	129.03799	898.14233	-110.47570	313.42099	507.89005	10.59315	338.01776	429.03284	167.08235	256.37100	251.71892	337.30704	301.37921	183.72798	381.50433	232.50015	227.86162	297.25891	272.72629	46.49964	-334.69675	90.45012	650.57794	-328.34213	36.30172	467.06732	-349.36597	118.33984	329.87225	-326.08548	52.83152	59.08602	-256.34256	105.66176	41.44506	-462.88730	69.82821	41.65023	262.49823	252.14488	31.64737	283.78812	235.30792	49.94647	304.23172	214.88887	136.49013	349.97430	205.46341	189.76024	375.40457	276.02002	198.54654	357.52737	305.67374	119.83328	332.91254	308.86670	56.91030	-504.56982	98.76297	38.93232	-473.08862	108.66741	43.80709	-376.63843	147.71704	46.70020	-294.24121	141.81403	41.62769	-287.87976	68.47648	38.69466	-361.39362	45.45952	32.63216	-425.09686	36.77012	38.31242	
382	3.175	-152.29819	187.30780	1685.27246	-267.78854	180.39423	1607.11096	-47.02188	181.05203	1611.75696	-115.34692	369.26321	1378.76453	16.14149	106.79085	1230.83398	-137.89748	503.38672	1068.35144	-378.63193	483.15097	974.63434	-124.29297	-38.14217	1381.77930	-3.59716	-142.72070	1093.18359	18.92670	-181.62183	837.74072	-172.07195	316.98138	892.07745	-216.75574	35.35877	913.59833	24.78453	128.95747	899.69409	-132.94357	314.28000	508.70471	-14.38167	338.99063	427.28235	147.72504	257.15518	254.63858	318.84058	302.16986	193.68420	358.45679	232.90726	240.06894	290.85013	274.55850	50.52592	-347.85867	87.18127	648.85120	-336.57315	34.88906	466.24142	-356.47861	117.24512	328.91486	-326.54276	52.85180	59.16122	-256.66641	105.59303	41.56195	-463.86292	69.31121	40.99319	257.74286	254.24846	29.96207	276.04510	238.97815	54.19789	288.53430	216.88342	142.98288	330.89191	205.91071	200.41150	356.81912	276.95746	210.85193	343.69415	306.71301	131.67732	323.83899	310.68048	66.76450	-505.79181	98.77015	37.68574	-473.78690	109.54356	42.72050	-376.38647	147.56300	46.98302	-294.42105	141.84366	41.55751	-288.65085	68.52973	38.82682	-361.49161	45.43716	32.58559	-425.47073	36.38679	37.91685	
